<svg width="40" height="40" viewBox="0 0 40 40" fill="none" xmlns="http://www.w3.org/2000/svg">
<g id="Cart">
<circle id="Ellipse 2" cx="20" cy="20" r="20" fill="white"/>
<g id="Cart Icon">
<g id="Rectangle 13">
<mask id="path-2-inside-1_1506_161889" fill="white">
<path d="M14 10C14 7.79086 15.7909 6 18 6H22C24.2091 6 26 7.79086 26 10V17H14V10Z"/>
</mask>
<path d="M12 10C12 6.68629 14.6863 4 18 4H22C25.3137 4 28 6.68629 28 10H24C24 8.89543 23.1046 8 22 8H18C16.8954 8 16 8.89543 16 10H12ZM26 17H14H26ZM12 17V10C12 6.68629 14.6863 4 18 4V8C16.8954 8 16 8.89543 16 10V17H12ZM22 4C25.3137 4 28 6.68629 28 10V17H24V10C24 8.89543 23.1046 8 22 8V4Z" fill="#495CEF" mask="url(#path-2-inside-1_1506_161889)"/>
</g>
<path id="Rectangle 14" d="M10.9082 14.9524C10.9336 14.4192 11.3732 14 11.907 14H28.093C28.6268 14 29.0665 14.4192 29.0918 14.9524L29.8016 29.8573C29.8831 31.5682 28.5179 33 26.805 33H13.195C11.4821 33 10.1169 31.5682 10.1984 29.8573L10.9082 14.9524Z" stroke="#495CEF" stroke-width="2" stroke-linejoin="round"/>
</g>
</g>
</svg>
